<svg version="1.2" baseProfile="tiny-ps" xmlns="http://www.w3.org/2000/svg" viewBox="0 0 1296 1022" width="1296" height="1022">
	<title>OBJECTS</title>
	<defs>
		<radialGradient id="grd1" gradientUnits="userSpaceOnUse"  cx="746.105" cy="338.136" r="36.103">
			<stop offset="0" stop-color="#ffc8b3"  />
			<stop offset="1" stop-color="#ffba9e"  />
		</radialGradient>
		<radialGradient id="grd2" gradientUnits="userSpaceOnUse"  cx="721.394" cy="273.325" r="58.158">
			<stop offset="0" stop-color="#ffc8b3"  />
			<stop offset="1" stop-color="#ffba9e"  />
		</radialGradient>
		<radialGradient id="grd3" gradientUnits="userSpaceOnUse"  cx="660.888" cy="923.644" r="24.378">
			<stop offset="0" stop-color="#ffc8b3"  />
			<stop offset="1" stop-color="#ffba9e"  />
		</radialGradient>
		<radialGradient id="grd4" gradientUnits="userSpaceOnUse"  cx="506.496" cy="929.758" r="22.205">
			<stop offset="0" stop-color="#ffc8b3"  />
			<stop offset="1" stop-color="#ffba9e"  />
		</radialGradient>
		<radialGradient id="grd5" gradientUnits="userSpaceOnUse"  cx="641.682" cy="513.092" r="124.332">
			<stop offset="0" stop-color="#ffc8b3"  />
			<stop offset="1" stop-color="#ffba9e"  />
		</radialGradient>
		<radialGradient id="grd6" gradientUnits="userSpaceOnUse"  cx="641.682" cy="512.052" r="124.332">
			<stop offset="0" stop-color="#ffc8b3"  />
			<stop offset="1" stop-color="#ffba9e"  />
		</radialGradient>
		<linearGradient id="grd7" gradientUnits="userSpaceOnUse"  x1="1108.124" y1="657.317" x2="1108.132" y2="845.735">
			<stop offset="0" stop-color="#4969b7"  />
			<stop offset="1" stop-color="#3e41a2"  />
		</linearGradient>
		<linearGradient id="grd8" gradientUnits="userSpaceOnUse"  x1="945.026" y1="652.989" x2="1024.24" y2="823.115">
			<stop offset="0" stop-color="#4969b7"  />
			<stop offset="1" stop-color="#3e41a2"  />
		</linearGradient>
		<linearGradient id="grd9" gradientUnits="userSpaceOnUse"  x1="1018.32" y1="602.486" x2="1075.212" y2="827.608">
			<stop offset="0" stop-color="#4969b7"  />
			<stop offset="1" stop-color="#3e41a2"  />
		</linearGradient>
	</defs>
	<style>
		tspan { white-space:pre }
		.shp0 { fill: #112b46 } 
		.shp1 { fill: #1d262d } 
		.shp2 { fill: #606bf1 } 
		.shp3 { fill: #fbd15b } 
		.shp4 { fill: #ff8578 } 
		.shp5 { fill: #f9fbfc } 
		.shp6 { fill: #f1f2f2 } 
		.shp7 { fill: url(#grd1) } 
		.shp8 { fill: url(#grd2) } 
		.shp9 { fill: #f7b094 } 
		.shp10 { fill: #3d3d7a } 
		.shp11 { fill: #0a2033 } 
		.shp12 { fill: #30475e } 
		.shp13 { fill: url(#grd3) } 
		.shp14 { fill: #56548c } 
		.shp15 { fill: url(#grd4) } 
		.shp16 { fill: #f4675d } 
		.shp17 { fill: url(#grd5) } 
		.shp18 { fill: #e8987c } 
		.shp19 { fill: url(#grd6) } 
		.shp20 { mix-blend-mode: screen;fill: #6d4b35 } 
		.shp21 { fill: #abb5ba } 
		.shp22 { fill: #8495a0 } 
		.shp23 { fill: #141b56 } 
		.shp24 { fill: #a5b7c6 } 
		.shp25 { fill: url(#grd7) } 
		.shp26 { fill: #747ded } 
		.shp27 { fill: url(#grd8) } 
		.shp28 { fill: url(#grd9) } 
		.shp29 { fill: #95a8b5 } 
	</style>
	<g id="OBJECTS">
		<g id="&lt;Group&gt;">
			<g id="&lt;Group&gt;">
				<g id="&lt;Group&gt;">
					<g id="&lt;Group&gt;">
						<path id="&lt;Path&gt;" class="shp0" d="M564.36 58.35L564.36 331.52L271.69 331.52L271.69 58.35L564.36 58.35Z" />
					</g>
					<g id="&lt;Group&gt;" style="mix-blend-mode: screen">
						<path id="&lt;Path&gt;" class="shp1" d="M564.36 58.35L564.36 87.24L271.69 87.24L271.69 58.35L564.36 58.35Z" />
					</g>
					<g id="&lt;Group&gt;">
						<g id="&lt;Group&gt;">
							<path id="&lt;Path&gt;" class="shp2" d="M501.1 73.13C501.1 76.05 498.72 78.42 495.8 78.42C492.88 78.42 490.5 76.05 490.5 73.13C490.5 70.2 492.88 67.83 495.8 67.83C498.72 67.83 501.1 70.2 501.1 73.13Z" />
						</g>
						<g id="&lt;Group&gt;">
							<path id="&lt;Path&gt;" class="shp3" d="M523.21 73.13C523.21 76.05 520.84 78.42 517.91 78.42C514.99 78.42 512.62 76.05 512.62 73.13C512.62 70.2 514.99 67.83 517.91 67.83C520.84 67.83 523.21 70.2 523.21 73.13Z" />
						</g>
						<g id="&lt;Group&gt;">
							<path id="&lt;Path&gt;" class="shp4" d="M543.74 73.68C543.74 76.61 541.37 78.98 538.44 78.98C535.52 78.98 533.15 76.61 533.15 73.68C533.15 70.76 535.52 68.39 538.44 68.39C541.37 68.39 543.74 70.76 543.74 73.68Z" />
						</g>
					</g>
					<g id="&lt;Group&gt;">
						<g id="&lt;Group&gt;">
							<g id="&lt;Group&gt;">
								<path id="&lt;Path&gt;" class="shp4" d="M365.18 117.58L323.73 117.58L323.73 114.1L365.18 114.1L365.18 117.58Z" />
							</g>
							<g id="&lt;Group&gt;">
								<path id="&lt;Path&gt;" class="shp3" d="M413.84 117.58L372.39 117.58L372.39 114.1L413.84 114.1L413.84 117.58Z" />
							</g>
							<g id="&lt;Group&gt;">
								<path id="&lt;Path&gt;" class="shp2" d="M400.83 136.35L336.56 136.35L336.56 132.87L400.83 132.87L400.83 136.35Z" />
							</g>
							<g id="&lt;Group&gt;">
								<path id="&lt;Path&gt;" class="shp4" d="M444.13 136.35L411.46 136.35L411.46 132.87L444.13 132.87L444.13 136.35Z" />
							</g>
							<g id="&lt;Group&gt;">
								<path id="&lt;Path&gt;" class="shp3" d="M387.08 155.12L358.85 155.12L358.85 151.63L387.08 151.63L387.08 155.12Z" />
							</g>
							<g id="&lt;Group&gt;">
								<path id="&lt;Path&gt;" class="shp3" d="M497.05 155.12L403.4 155.12L403.4 151.63L497.05 151.63L497.05 155.12Z" />
							</g>
							<g id="&lt;Group&gt;">
								<path id="&lt;Path&gt;" class="shp2" d="M487.81 173.88L380.78 173.88L380.78 170.4L487.81 170.4L487.81 173.88Z" />
							</g>
							<g id="&lt;Group&gt;">
								<path id="&lt;Path&gt;" class="shp4" d="M386.96 192.65L354.02 192.65L354.02 189.17L386.96 189.17L386.96 192.65Z" />
							</g>
							<g id="&lt;Group&gt;">
								<path id="&lt;Path&gt;" class="shp2" d="M433.99 192.65L401.05 192.65L401.05 189.17L433.99 189.17L433.99 192.65Z" />
							</g>
						</g>
						<g id="&lt;Group&gt;">
							<g id="&lt;Group&gt;">
								<path id="&lt;Path&gt;" class="shp4" d="M371.65 286.54L323.73 286.54L323.73 290.02L371.65 290.02L371.65 286.54Z" />
							</g>
							<g id="&lt;Group&gt;">
								<path id="&lt;Path&gt;" class="shp3" d="M436.36 286.54L388.44 286.54L388.44 290.02L436.36 290.02L436.36 286.54Z" />
							</g>
							<g id="&lt;Group&gt;">
								<path id="&lt;Path&gt;" class="shp4" d="M499.32 286.54L451.4 286.54L451.4 290.02L499.32 290.02L499.32 286.54Z" />
							</g>
							<g id="&lt;Group&gt;">
								<path id="&lt;Path&gt;" class="shp2" d="M430.21 267.77L336.56 267.77L336.56 271.25L430.21 271.25L430.21 267.77Z" />
							</g>
							<g id="&lt;Group&gt;">
								<path id="&lt;Path&gt;" class="shp4" d="M538.46 267.77L444.81 267.77L444.81 271.25L538.46 271.25L538.46 267.77Z" />
							</g>
							<g id="&lt;Group&gt;">
								<path id="&lt;Path&gt;" class="shp4" d="M451.79 249L358.85 249L358.85 252.48L451.79 252.48L451.79 249Z" />
							</g>
							<g id="&lt;Group&gt;">
								<path id="&lt;Path&gt;" class="shp3" d="M485.76 249L459.89 249L459.89 252.48L485.76 252.48L485.76 249Z" />
							</g>
							<g id="&lt;Group&gt;">
								<path id="&lt;Path&gt;" class="shp3" d="M387.77 230.23L352.78 230.23L352.78 233.72L387.77 233.72L387.77 230.23Z" />
							</g>
							<g id="&lt;Group&gt;">
								<path id="&lt;Path&gt;" class="shp2" d="M441.33 230.23L406.35 230.23L406.35 233.72L441.33 233.72L441.33 230.23Z" />
							</g>
							<g id="&lt;Group&gt;">
								<path id="&lt;Path&gt;" class="shp4" d="M498.82 230.23L463.84 230.23L463.84 233.72L498.82 233.72L498.82 230.23Z" />
							</g>
							<g id="&lt;Group&gt;">
								<path id="&lt;Path&gt;" class="shp3" d="M442.39 211.47L393.34 211.47L393.34 214.95L442.39 214.95L442.39 211.47Z" />
							</g>
							<g id="&lt;Group&gt;">
								<path id="&lt;Path&gt;" class="shp2" d="M374.83 211.47L325.77 211.47L325.77 214.95L374.83 214.95L374.83 211.47Z" />
							</g>
						</g>
					</g>
					<g id="&lt;Group&gt;">
						<g id="&lt;Group&gt;">
							<g id="&lt;Group&gt;">
								<path id="&lt;Path&gt;" class="shp5" d="M301.06 115.21L296.61 115.21L296.61 110.75L301.06 110.75L301.06 115.21Z" />
							</g>
						</g>
						<g id="&lt;Group&gt;">
							<g id="&lt;Group&gt;">
								<path id="&lt;Compound Path&gt;" class="shp5" d="M301.06 274.38L296.61 274.38L296.61 265.28L301.06 265.28L301.06 274.38ZM301.06 251.64L296.61 251.64L296.61 242.55L301.06 242.55L301.06 251.64ZM301.06 228.9L296.61 228.9L296.61 219.81L301.06 219.81L301.06 228.9ZM301.06 206.16L296.61 206.16L296.61 197.07L301.06 197.07L301.06 206.16ZM301.06 183.43L296.61 183.43L296.61 174.33L301.06 174.33L301.06 183.43ZM301.06 160.69L296.61 160.69L296.61 151.59L301.06 151.59L301.06 160.69ZM301.06 137.95L296.61 137.95L296.61 128.86L301.06 128.86L301.06 137.95Z" />
							</g>
						</g>
						<g id="&lt;Group&gt;">
							<g id="&lt;Group&gt;">
								<path id="&lt;Path&gt;" class="shp5" d="M301.06 292.48L296.61 292.48L296.61 288.02L301.06 288.02L301.06 292.48Z" />
							</g>
						</g>
					</g>
				</g>
				<g id="&lt;Group&gt;">
					<g id="&lt;Group&gt;">
						<path id="&lt;Path&gt;" class="shp4" d="M868.32 148.87L627.33 148.87L627.33 0.32L868.32 0.32L868.32 148.87Z" />
					</g>
					<g id="&lt;Group&gt;">
						<path id="&lt;Compound Path&gt;" class="shp5" d="M720.92 60.07L692.25 72.31L720.92 84.37L717.17 93.03L682.79 77.67L682.79 67.04L717.17 51.59L720.92 60.07Z" />
						<path id="&lt;Compound Path&gt;" class="shp5" d="M763.18 31.76L742.37 111.7L732.45 109.37L753.35 29.53L763.18 31.76Z" />
						<path id="&lt;Compound Path&gt;" class="shp5" d="M812.94 67.04L812.94 77.67L778.55 93.03L774.8 84.37L803.38 72.31L774.8 60.07L778.55 51.59L812.94 67.04Z" />
					</g>
				</g>
				<g id="&lt;Group&gt;">
					<g id="&lt;Group&gt;">
						<path id="&lt;Path&gt;" class="shp2" d="M997.3 385.89L860.04 385.89L860.04 288.1L997.3 288.1L997.3 385.89Z" />
					</g>
					<g id="&lt;Group&gt;">
						<path id="&lt;Compound Path&gt;" class="shp6" d="M917.46 309.21C913.04 309.21 911.57 310.4 911.57 313.7L911.57 328.41C911.57 334.16 909.19 335.91 905.19 337.04C909.19 338.09 911.57 339.84 911.57 345.51L911.57 360.23C911.57 363.53 913.11 364.72 917.46 364.72L917.46 371.17C906.31 371.17 903.16 367.59 903.16 360.16L903.16 346.22C903.16 342.22 902.11 340.68 898.47 340.68L898.47 333.32C902.11 333.32 903.16 331.71 903.16 327.71L903.16 313.77C903.16 306.27 906.31 302.76 917.46 302.76L917.46 309.21Z" />
						<path id="&lt;Compound Path&gt;" class="shp6" d="M954.18 313.77L954.18 327.71C954.18 331.71 955.24 333.32 958.95 333.32L958.95 340.68C955.24 340.68 954.18 342.22 954.18 346.22L954.18 360.16C954.18 367.59 951.03 371.17 939.89 371.17L939.89 364.72C944.23 364.72 945.77 363.53 945.77 360.23L945.77 345.51C945.77 339.84 948.16 338.09 952.15 337.04C948.16 335.91 945.77 334.16 945.77 328.41L945.77 313.7C945.77 310.4 944.3 309.21 939.89 309.21L939.89 302.76C951.03 302.76 954.18 306.27 954.18 313.77Z" />
					</g>
				</g>
				<g id="&lt;Group&gt;">
					<g id="&lt;Group&gt;">
						<path id="&lt;Path&gt;" class="shp3" d="M332.54 124.62L178.55 124.62L178.55 21.63L332.54 21.63L332.54 124.62Z" />
					</g>
					<g id="&lt;Group&gt;">
						<g id="&lt;Group&gt;">
							<path id="&lt;Compound Path&gt;" fill-rule="evenodd" class="shp5" d="M267.19 49.04C275.84 57.69 276.89 71.11 270.34 80.92L286.5 97.09C287.19 97.77 287.19 98.87 286.5 99.56L281.96 104.1C281.28 104.78 280.18 104.78 279.49 104.1L263.33 87.94C252.86 94.92 238.28 93.26 229.76 82.93C222.27 73.84 222.16 60.4 229.51 51.19C239.08 39.23 256.66 38.51 267.19 49.04ZM261.95 54.27C254.98 47.3 243.65 47.3 236.68 54.27C229.71 61.24 229.71 72.58 236.68 79.54C243.65 86.51 254.98 86.51 261.95 79.54C268.92 72.58 268.92 61.24 261.95 54.27Z" />
						</g>
					</g>
				</g>
				<g id="&lt;Group&gt;">
					<g id="&lt;Group&gt;">
						<path id="&lt;Path&gt;" class="shp7" d="M780.48 339.77C780.14 343.17 775.49 378.69 738.97 378.69C713.4 378.69 702.76 366.03 707.05 340.72L707 340.48C710.74 339.72 714.76 339.43 719.03 339.91L719.03 321.93L762.55 297.59L764.13 297.59L764.13 339.53C768.73 338.98 774.18 339.06 780.48 339.77Z" />
						<g id="&lt;Group&gt;">
							<g id="&lt;Group&gt;">
								<g id="&lt;Group&gt;">
									<path id="&lt;Path&gt;" class="shp8" d="M759.34 217.35C765.51 223.61 770.17 231.71 772.42 241.6C776.6 260.04 772.67 279.55 767.32 297.32C766.4 300.36 765.37 303.43 763.49 305.98C762.15 307.81 760.42 309.31 758.72 310.8C750.97 317.54 743.23 324.29 735.51 331.05C730.27 335.63 698.04 339.45 691.89 335.05C668.19 318.1 663.62 269 668.37 243.89C676.24 202.25 729.77 187.36 759.34 217.35Z" />
								</g>
							</g>
							<path id="&lt;Path&gt;" class="shp9" d="M746.03 270.65C746.34 266.64 750.46 262.25 754.6 264.85C758.88 267.54 757.88 274.66 756.1 278.58C754.71 281.65 750.05 285.02 746.9 282.16C744.26 279.76 748.36 276.94 748.5 274.75C748.62 272.78 744.68 271.38 746.3 269.27" />
							<path id="&lt;Path&gt;" class="shp9" d="M746.78 289.18C751.1 290.48 758.42 287.18 760.28 281.17C761.51 277.16 762.06 272.86 761.93 268.28C763.38 271.91 763.73 276.65 762.99 282.49C761.87 291.26 758.8 299.61 751.92 299.72C747.33 299.79 745.62 296.28 746.78 289.18Z" />
							<path id="&lt;Path&gt;" class="shp10" d="M741.48 282.95C741.34 283.02 741.18 283.07 741 283.09C738.32 283.46 737.26 280.23 736.86 278.2C735.93 273.47 736.08 268.68 735.91 263.9C735.88 262.7 735.97 261.2 735.48 260.08C733.98 256.63 729.97 254.4 728.75 250.84C727.33 246.71 731.34 242.58 729.75 238.06C727.31 231.13 718.41 229.53 711.97 229.61C702.31 229.72 692.89 231.51 683.36 232.99C673.29 234.55 660.43 236.04 651.56 229.67C640.87 222 636.4 202.01 644.38 191.06C648.73 185.09 656.98 181.91 664.2 181.75C671.86 181.57 678.33 186.14 685.35 188.44C690.95 190.27 696.36 184.91 701.59 183.87C708.16 182.56 710.96 189.73 716.77 189.93C722.42 190.12 727.96 185.71 733.46 184.7C744.41 182.7 743.76 193.7 751.11 197.46C755.68 199.8 761.58 198.38 766.2 200.76C769.71 202.56 770.2 205.73 770.97 209.32C771.63 212.42 771.66 216 772.69 218.95C773.6 221.6 775.83 223.27 777.57 225.35C779.46 227.61 780.68 230.25 781.64 233.09C783.77 239.39 784.24 246.17 783.66 252.76C782.68 263.82 779.13 274.71 775.43 285.12C773.03 291.88 772.14 298.92 768.46 305.31C767.47 307.03 763.07 312.05 761.43 308.31C761.08 307.51 761.14 306.6 761.2 305.73C761.68 298.76 768.17 253.87 751.17 259.26C747.59 260.39 745.2 263.36 743.87 266.75C742.28 270.8 742.17 274.89 742.37 279.17C742.4 279.78 742.41 280.4 742.39 281.01C742.36 281.8 742.16 282.61 741.48 282.95Z" />
						</g>
					</g>
					<path id="&lt;Path&gt;" class="shp9" d="M719.03 335.8C731.92 333.72 742.62 327.6 751.13 317.41C747.65 334.57 736.56 343.61 717.87 344.52L719.03 335.8Z" />
					<g id="&lt;Group&gt;">
						<path id="&lt;Path&gt;" class="shp11" d="M750.77 686.71L778.45 686.71L778.45 952.29C778.45 954.98 776.27 957.16 773.57 957.16L755.65 957.16C752.95 957.16 750.77 954.98 750.77 952.29L750.77 686.71Z" />
						<path id="&lt;Path&gt;" class="shp12" d="M688.5 690.51L840.72 690.51L840.72 694.66C840.72 705.12 832.24 713.61 821.78 713.61L707.44 713.61C696.98 713.61 688.5 705.12 688.5 694.66L688.5 690.51Z" />
						<g id="&lt;Group&gt;">
							<path id="&lt;Path&gt;" class="shp11" d="M750.77 925.68L778.45 925.68L778.45 987.22C778.45 989.91 776.27 992.1 773.57 992.1L755.65 992.1C752.95 992.1 750.77 989.91 750.77 987.22L750.77 925.68Z" />
							<path id="&lt;Path&gt;" class="shp11" d="M620.97 975.9C620.97 984.84 628.22 992.1 637.17 992.1C646.12 992.1 653.37 984.84 653.37 975.9C653.37 966.95 646.12 959.7 637.17 959.7C628.22 959.7 620.97 966.95 620.97 975.9Z" />
							<path id="&lt;Path&gt;" class="shp11" d="M875.85 975.9C875.85 984.84 883.1 992.1 892.05 992.1C901 992.1 908.25 984.84 908.25 975.9C908.25 966.95 901 959.7 892.05 959.7C883.1 959.7 875.85 966.95 875.85 975.9Z" />
							<path id="&lt;Path&gt;" class="shp12" d="M736.77 953.71L792.45 953.71L792.45 905.05L736.77 905.05L736.77 953.71Z" />
							<path id="&lt;Path&gt;" class="shp3" d="M620.97 965.16L908.25 965.16L908.25 959.51C908.25 949.99 900.53 942.26 891 942.26L638.23 942.26C628.7 942.26 620.97 949.99 620.97 959.51L620.97 965.16Z" />
						</g>
						<path id="&lt;Path&gt;" class="shp12" d="M764.61 900.71L755.01 900.71L755.01 719.06L764.61 719.06L764.61 900.71Z" />
					</g>
					<path id="&lt;Path&gt;" class="shp3" d="M873.36 494.21C866.72 494 861.32 499.5 861.7 506.13C863.6 539.1 856.61 619.53 825.9 646.97C800.87 669.34 752.88 679 681.94 675.96C670.22 690.34 676.08 699.12 699.51 702.32C734.66 707.11 833.72 703.92 857.68 681.55C880.88 659.9 894.65 603.17 884.28 504.43C883.68 498.77 879.05 494.39 873.36 494.21Z" />
					<g id="&lt;Group&gt;">
						<g id="&lt;Group&gt;">
							<path id="&lt;Path&gt;" class="shp13" d="M673.97 900.71L686.63 929.56L647.85 946.58L635.15 917.63L673.97 900.71Z" />
							<path id="&lt;Path&gt;" class="shp14" d="M856.83 580C854.44 584.79 682.15 580.09 665.87 581.58C595.57 615.13 555.37 647.61 545.28 679.02C543.74 683.77 543.31 690.05 543.79 697.53C546.6 741.75 573.19 816.81 623.55 922.71L635.15 917.63L673.97 900.71L679.49 898.31C639.54 779.28 623.57 716.57 631.55 710.18C643.54 700.59 779.33 676.63 826.44 663.88C857.89 655.35 868.02 627.39 856.83 580Z" />
							<path id="&lt;Path&gt;" class="shp15" d="M526.14 908.13L529.17 951.48L486.85 951.48L483.82 908.03L526.14 908.13Z" />
							<path id="&lt;Path&gt;" class="shp10" d="M665.01 580.09L663.48 580.77C545.79 597.29 477.36 622.05 458.19 655.06C445.72 676.53 451.55 765.72 475.67 922.63L538.13 922.77C531.9 792.07 529.83 723.07 531.9 715.79C535.4 703.33 541.39 698.82 543.79 697.53C543.31 690.05 543.74 683.77 545.28 679.02C555.37 647.61 595.57 615.13 665.87 581.58C665.54 581.34 665.25 580.81 665.01 580.09Z" />
							<path id="&lt;Compound Path&gt;" class="shp4" d="M835.52 416.98L823.68 418.61C821.76 439.89 818.45 461.18 813.76 482.46L666.27 538.44L664.26 549.13C663.64 549.08 663.01 549.03 662.44 548.99C662.49 551.19 662.49 553.35 662.58 555.36C662.92 567.68 663.73 576.55 665.03 580.09C665.27 580.81 665.55 581.34 665.89 581.58C669.9 584.85 722.06 578.52 778.45 599.22C827.36 617.18 854.77 636.8 856.04 634.16C871.41 602.21 843.43 476.8 835.52 416.98Z" />
							<path id="&lt;Path&gt;" class="shp16" d="M820.13 490.13C816.2 509.01 806.04 546.59 786.1 551.62C760.07 558.24 709.75 557.9 662.58 555.36C662.49 553.35 662.49 551.19 662.44 548.99C663.01 549.03 663.64 549.08 664.26 549.13L666.27 538.44L813.76 482.46C818.45 461.18 821.76 439.89 823.68 418.61C823.68 418.74 823.7 418.92 823.73 419.14C824.01 424.08 826.03 462.23 820.13 490.13Z" />
							<path id="&lt;Path&gt;" class="shp16" d="M672.3 369.87C669.66 374.66 665.87 425.95 663.81 476.85L633.66 448.71C642.19 432.19 655.07 405.91 672.3 369.87Z" />
							<path id="&lt;Path&gt;" class="shp9" d="M654.23 514.04C637.26 516.98 620.98 519.72 605.38 522.24L605.34 523.49C586.45 508.4 562.64 479.5 533.92 436.78C542.51 426.46 547.88 419.94 550.02 417.22C550.5 416.6 620.77 464.96 624.36 464.53C625.27 464.44 628.87 458.11 633.66 448.71L663.81 476.85C663.33 488.98 662.95 501.05 662.71 512.51C659.88 513.04 657.05 513.52 654.23 514.04Z" />
							<path id="&lt;Path&gt;" class="shp17" d="M605.38 522.24L604.76 543.23L528.07 543.23C533.15 523.26 542.61 513.28 556.44 513.28C570.28 513.28 579.87 516.94 585.2 524.25L605.38 522.24Z" />
							<path id="&lt;Path&gt;" class="shp9" d="M549.45 416.74L550.02 417.22C547.88 419.94 542.51 426.46 533.92 436.78L525.91 431.12C520.03 434.7 513.67 434.62 506.84 430.88C496.15 425.08 502.76 411.23 503.31 409.59C501.24 410.18 488.43 420.53 486.42 419.43C484.4 418.33 482.92 414.68 497.25 400.54C511.53 386.4 530.99 404.57 531.57 404.57L549.45 416.74Z" />
							<path id="&lt;Path&gt;" class="shp9" d="M508.5 428.48C506.44 432.34 507.24 435.1 510.91 436.78C516.4 439.29 527.09 441.11 531.68 440.67C534.74 440.37 537.49 438.08 539.92 433.8L526.01 420.75L514.9 420.75L508.5 428.48Z" />
							<path id="&lt;Path&gt;" class="shp18" d="M507.68 431.32C508.5 428.48 516.4 429.99 521.29 430.11C524.9 430.19 526.87 429.25 527.99 426.5C529.1 423.76 523.87 419.38 522.84 420.75C521.81 422.13 524.73 424.06 524.81 425.88C524.9 427.71 519.66 428.31 515.63 428.31C512.94 428.31 509.27 428.66 504.63 429.36L507.68 431.32Z" />
						</g>
					</g>
					<path id="&lt;Path&gt;" class="shp19" d="M806.26 509.68L731.16 483.08C725.69 493.29 719.84 500.96 714.04 502.49C705.27 504.79 684.09 508.77 662.71 512.51C659.88 513.04 657.05 513.52 654.23 514.04C637.26 516.98 620.98 519.72 605.38 522.24L605.33 523.49L605.33 524.3L604.76 543.23L604.76 548.04C621.76 547.17 640.98 547.48 662.42 548.99C707.43 552.2 765.47 554.12 784.7 545.06C793.71 540.79 800.9 526.79 806.55 509.54C806.46 509.59 806.36 509.63 806.26 509.68Z" />
					<path id="&lt;Path&gt;" class="shp9" d="M731.16 483.08L806.26 509.68L802.86 519.72L728.53 487.83L731.16 483.08Z" />
					<path id="&lt;Path&gt;" class="shp4" d="M731.16 483.08C725.69 493.29 719.84 500.96 714.04 502.49C705.27 504.79 684.09 508.77 662.71 512.51C662.95 501.05 663.33 488.98 663.81 476.85C665.87 425.95 669.66 374.66 672.3 369.87C676.61 361.86 688.4 344.46 707 340.48L707.05 340.72C702.76 366.03 713.4 378.69 738.97 378.69C775.49 378.69 780.14 343.17 780.48 339.77C799.27 341.87 828.07 351.27 832.05 389.04C832.87 396.52 834.02 406.1 835.5 416.98L823.66 418.61C820.47 454.08 814.76 484.39 806.55 509.54C806.46 509.59 806.36 509.63 806.26 509.68L731.16 483.08Z" />
					<path id="&lt;Path&gt;" class="shp20" d="M730.38 476.16L760.37 403.56L738.28 479.09L730.38 476.16Z" />
					<path id="&lt;Path&gt;" class="shp4" d="M780.48 339.77L764.13 339.77C748.63 356.79 735.89 365.3 725.92 365.3C715.95 365.3 713.66 356.84 719.03 339.91L711.73 339.91C690.78 339.91 673.15 355.65 670.77 376.47C670.5 378.85 670.25 381.11 670.04 383.16C668.98 393.46 689.31 402.36 731.03 409.85L763.26 408.05L782.83 369.87L786.73 354.23L780.48 339.77Z" />
					<g id="&lt;Group&gt;">
						<g id="&lt;Group&gt;">
							<g id="&lt;Group&gt;">
								<g id="&lt;Group&gt;">
									<path id="&lt;Path&gt;" class="shp6" d="M583.25 979.79C584.71 987.6 590.12 993.15 597.93 991.69L702.03 972.28C704.66 971.79 706.4 969.25 705.91 966.62L704.19 957.38C631.19 970.16 590.86 977.61 583.2 979.73L583.25 979.79Z" />
									<path id="&lt;Path&gt;" class="shp10" d="M614.22 953.58C615.31 952.64 616.35 951.7 617.44 950.76C619.53 948.89 621.58 947.07 623.56 945.31C624.6 944.38 625.65 943.44 626.61 942.56C628.52 940.86 630.31 939.26 631.91 937.83C633.07 936.79 634.14 935.81 635.11 934.93C636.89 933.34 638.35 932.03 639.36 931.12C640.25 930.33 641.56 930.29 642.46 931.06C646.74 934.65 660.57 942.88 685.63 927.38C686.81 926.64 688.39 927.03 689.04 928.27L704.19 957.38C631.19 970.16 590.86 977.61 583.2 979.73C586.98 977.37 600.95 965.28 614.22 953.58Z" />
								</g>
							</g>
						</g>
					</g>
					<g id="&lt;Group&gt;">
						<g id="&lt;Group&gt;">
							<g id="&lt;Group&gt;">
								<g id="&lt;Group&gt;">
									<path id="&lt;Path&gt;" class="shp6" d="M419.3 978.77C419.49 986.71 423.95 993.05 431.89 992.86L537.76 990.27C540.43 990.21 542.55 987.99 542.49 985.31L542.26 975.91C468.16 976.9 427.16 977.83 419.25 978.7L419.3 978.77Z" />
									<path id="&lt;Path&gt;" class="shp10" d="M454.05 957.83C455.27 957.07 456.45 956.31 457.67 955.56C460.03 954.04 462.35 952.57 464.58 951.15C465.76 950.39 466.94 949.64 468.04 948.93C470.19 947.55 472.21 946.26 474.02 945.1C475.33 944.26 476.55 943.46 477.64 942.74C479.65 941.45 481.3 940.4 482.45 939.66C483.44 939.02 484.74 939.19 485.52 940.09C489.17 944.32 501.51 954.65 528.72 943.34C530.01 942.8 531.5 943.43 531.94 944.76L542.26 975.91C468.16 976.9 427.16 977.83 419.25 978.7C423.36 976.98 439.09 967.26 454.05 957.83Z" />
								</g>
							</g>
						</g>
					</g>
					<g id="&lt;Group&gt;">
						<path id="&lt;Path&gt;" class="shp21" d="M343.99 548.04L287.45 397.25L448.41 397.25L504.95 548.04L343.99 548.04Z" />
						<path id="&lt;Path&gt;" class="shp22" d="M514.9 548.04L504.95 548.04L448.41 397.25L457.45 397.65L509.74 534.14L514.9 548.04Z" />
						<g id="&lt;Group&gt;">
							<path id="&lt;Path&gt;" class="shp22" d="M511.78 548.04L618.14 548.04L617.85 538.53C546.87 538.53 510.78 538.53 509.6 538.53" />
						</g>
					</g>
					<g id="&lt;Group&gt;">
						<g id="&lt;Group&gt;">
							<path id="&lt;Path&gt;" class="shp22" d="M964.9 997.5L939.3 997.5L939.3 576.8L964.9 576.8L964.9 997.5Z" />
						</g>
						<g id="&lt;Group&gt;">
							<path id="&lt;Path&gt;" class="shp21" d="M825.9 997.5L800.3 997.5L800.3 576.8L825.9 576.8L825.9 997.5Z" />
						</g>
						<g id="&lt;Group&gt;">
							<path id="&lt;Path&gt;" class="shp22" d="M380.59 997.5L354.98 997.5L354.98 576.8L380.59 576.8L380.59 997.5Z" />
						</g>
						<g id="&lt;Group&gt;">
							<path id="&lt;Path&gt;" class="shp21" d="M241.59 997.5L215.98 997.5L215.98 576.8L241.59 576.8L241.59 997.5Z" />
						</g>
						<path id="&lt;Path&gt;" class="shp23" d="M990.53 578.4L191.45 578.4C184.57 578.4 179 572.82 179 565.95L179 560.49C179 553.61 184.57 548.04 191.45 548.04L990.53 548.04C997.4 548.04 1002.98 553.61 1002.98 560.49L1002.98 565.95C1002.98 572.82 997.4 578.4 990.53 578.4Z" />
					</g>
					<path id="&lt;Path&gt;" class="shp22" d="M314.32 413.1L317.08 420.44L349.14 420.44L346.39 413.1L314.32 413.1Z" />
					<path id="&lt;Path&gt;" class="shp18" d="M633.66 448.71L631.36 453.16L663.81 486.7L663.81 476.85L633.66 448.71Z" />
				</g>
			</g>
			<g id="&lt;Group&gt;">
				<path id="&lt;Path&gt;" class="shp24" d="M1295.98 1021.68L0.23 1021.68L0.23 992.09L1295.98 992.09L1295.98 1021.68Z" />
				<g id="&lt;Group&gt;">
					<g id="&lt;Group&gt;">
						<path id="&lt;Path&gt;" class="shp25" d="M1090.55 772.64C1085.4 797.62 1086.95 840.16 1053.91 846.9C1045.01 848.71 1036.42 842.55 1031.25 835.48C1024.48 826.23 1022.86 806.65 1022.98 795.46C1023.07 786.58 1026.1 776.69 1027.07 767.74C1028.12 758.07 1028.98 748.37 1030.11 738.71C1034.17 703.89 1052.36 674.7 1083.14 657.32C1085.52 668.75 1090.95 678.42 1095.73 689.4C1097.91 694.4 1099.88 699.68 1101.31 704.93C1103.82 714.21 1100.78 723.6 1098.52 732.49C1095.18 745.64 1093.29 759.34 1090.55 772.64Z" />
						<path id="&lt;Path&gt;" class="shp26" d="M1048.32 847.74C1048.55 845.65 1048.81 843.55 1049.09 841.46C1053.04 841.45 1057.15 839.21 1060.46 837.49C1066.21 834.51 1070.87 830.24 1075.39 825.67C1075.63 825.43 1075.22 825.03 1074.96 825.25C1070.46 829.03 1065.79 832.69 1060.43 835.19C1057.44 836.59 1053.07 838.86 1049.39 839.3C1049.74 836.8 1050.12 834.31 1050.53 831.82C1054.65 831.31 1058.41 828.61 1061.89 826.55C1067.81 823.04 1072.9 818.5 1078.17 814.12C1078.23 814.07 1078.16 813.98 1078.1 814.03C1070.03 819.89 1061.04 828.23 1050.83 830.05C1051.37 826.93 1051.95 823.82 1052.6 820.73C1052.64 820.57 1052.67 820.41 1052.71 820.25C1064.52 817.26 1072.51 807.99 1081.55 800.51C1081.7 800.38 1081.54 800.13 1081.39 800.25C1072.48 807.17 1064.11 815.06 1053.1 818.42C1054.06 814 1055.05 809.59 1056.05 805.18C1066.74 801.24 1075.27 794.98 1082.74 786.26C1082.86 786.11 1082.66 785.91 1082.52 786.05C1074.79 794.09 1066.28 798.72 1056.48 803.3C1057.46 798.94 1058.44 794.58 1059.37 790.2C1064 787.93 1068.86 786.54 1073.13 783.56C1077.34 780.61 1081.12 777.09 1083.83 772.7C1083.98 772.47 1083.63 772.25 1083.48 772.48C1077.5 781.07 1068.48 783.75 1059.77 788.27C1060.62 784.19 1061.41 780.11 1062.12 776C1071.83 770.65 1082.38 765.69 1087.88 755.45C1087.93 755.35 1087.79 755.25 1087.73 755.35C1081.9 764.76 1071.71 768.82 1062.46 773.94C1062.59 773.21 1062.72 772.48 1062.83 771.75C1063.43 767.93 1063.98 764.12 1064.53 760.3C1070.11 758.07 1075.43 754.91 1080.45 751.64C1084.01 749.32 1087.82 747.02 1090.15 743.38C1090.3 743.15 1089.96 742.91 1089.8 743.14C1084.6 750.6 1073.19 754.91 1064.77 758.64C1065.32 754.79 1065.86 750.93 1066.41 747.08C1075.75 741.42 1086.75 738.29 1092.5 728.1C1092.67 727.8 1092.23 727.52 1092.04 727.81C1086.08 737.12 1075.6 739.99 1066.66 745.28C1067.01 742.89 1067.36 740.5 1067.72 738.11C1077.81 734.4 1089.54 725.95 1094.87 716.83C1095.16 716.33 1094.43 715.86 1094.11 716.34C1088.68 724.35 1077.77 733.05 1068.01 736.22C1068.61 732.35 1069.23 728.49 1069.92 724.64C1069.99 724.53 1070.04 724.42 1070.07 724.3C1074.6 722.96 1079.08 719.77 1082.99 717.35C1087.71 714.44 1092.21 711.06 1095.15 706.28C1095.47 705.75 1094.61 705.26 1094.31 705.8C1089.82 713.81 1079.18 719.17 1070.38 722.22C1070.64 720.82 1070.89 719.41 1071.17 718.01C1071.58 715.91 1072.01 713.81 1072.44 711.72C1076.05 709.23 1080.63 708.03 1084.25 705.4C1087.39 703.12 1090.14 700.36 1092.84 697.57C1093.11 697.3 1092.71 696.87 1092.43 697.13C1088.77 700.57 1085.01 703.86 1080.57 706.24C1078.08 707.58 1075.24 708.34 1072.83 709.79C1073.54 706.37 1074.24 702.94 1074.91 699.5C1074.95 699.5 1075 699.48 1075.04 699.47C1075.08 699.48 1075.13 699.49 1075.17 699.5C1075.42 699.55 1075.62 699.46 1075.76 699.32C1080.66 698.08 1084.42 693.86 1087.71 690.26C1087.79 690.18 1087.67 690.05 1087.59 690.13C1084.13 693.33 1080.2 696.87 1075.57 698.24C1075.55 698.24 1075.54 698.23 1075.52 698.22C1075.4 698.2 1075.28 698.18 1075.17 698.17C1075.7 695.37 1076.21 692.57 1076.68 689.77C1077.03 689.7 1077.34 689.4 1077.26 689.05C1079.86 687.3 1082.22 685.08 1084.44 682.9C1084.6 682.74 1084.37 682.48 1084.19 682.63C1081.89 684.62 1079.61 686.26 1077.02 687.7C1077.94 681.9 1078.65 676.07 1078.97 670.19C1079 669.64 1078.18 669.64 1078.13 670.17C1077.61 675.84 1076.79 681.45 1075.82 687.03C1073.11 683.48 1070.1 679.83 1068.45 675.77C1068.36 675.56 1068.03 675.64 1068.1 675.87C1068.91 678.39 1070.31 680.6 1071.69 682.84C1072.92 684.85 1073.91 687.18 1075.49 688.97C1074.94 691.96 1074.35 694.95 1073.74 697.94C1070.45 697.41 1067.43 696.79 1064.72 694.41C1061.39 691.49 1059.5 687.53 1059.17 683.13C1059.13 682.59 1058.28 682.6 1058.33 683.14C1058.7 687.22 1060.33 691.07 1063.13 694.11C1066.07 697.32 1069.52 698.34 1073.48 699.16C1072.76 702.61 1072.01 706.05 1071.26 709.5C1068.27 707.7 1065.5 705.36 1062.8 703.22C1058.46 699.75 1055.89 695.59 1052.12 691.69C1051.74 691.3 1051.13 691.86 1051.5 692.26C1055.03 696.02 1057.42 700.08 1061.45 703.46C1064.34 705.89 1067.53 708.94 1070.99 710.73C1070.94 710.92 1070.91 711.1 1070.87 711.28C1070.83 711.31 1070.79 711.34 1070.75 711.38C1070.49 711.63 1070.52 711.93 1070.67 712.15C1069.95 715.44 1069.22 718.74 1068.53 722.04C1068.49 722.25 1068.45 722.46 1068.41 722.66C1060.72 719.15 1049.24 713.03 1048.22 704.12C1048.12 703.27 1046.86 703.5 1047.05 704.37C1049.32 714.46 1060.41 718.93 1068.05 724.44C1067.3 728.17 1066.61 731.92 1065.98 735.67C1061.01 733.96 1056.29 731.85 1052.12 728.54C1048.33 725.52 1042.97 721.89 1041.27 717.22C1041.21 717.07 1040.99 717.17 1041.04 717.31C1042.62 721.95 1047.44 725.14 1050.94 728.31C1055.38 732.33 1059.92 735.74 1065.63 737.35C1065.59 737.51 1065.58 737.69 1065.62 737.85C1065.23 740.23 1064.85 742.62 1064.48 745C1055.15 744.28 1042.09 737.2 1037.32 730.14C1037.3 730.1 1037.25 730.14 1037.27 730.17C1040.53 735.56 1045.45 738.71 1050.99 741.44C1055.13 743.48 1059.61 745.9 1064.29 746.24C1063.62 750.66 1062.97 755.08 1062.32 759.5C1058.27 757.99 1053.98 757.27 1049.97 755.66C1044.01 753.28 1039.46 749 1035.96 743.73C1035.74 743.41 1035.21 743.68 1035.42 744.01C1041.89 754.28 1051.18 757.3 1062.07 761.14C1061.53 764.77 1060.96 768.39 1060.36 772.01C1051.45 770.3 1039.92 764.86 1035.41 757.12C1035.08 756.55 1034.18 757.02 1034.51 757.6C1037.36 762.56 1042.26 765.69 1047.27 768.22C1050.88 770.04 1055.84 773.06 1060.14 773.38C1060.12 773.5 1060.1 773.62 1060.08 773.74C1059.2 778.95 1058.17 784.12 1057.06 789.29C1047.1 786.78 1040.67 779.41 1033.43 772.51C1032.93 772.03 1032.14 772.76 1032.64 773.25C1040.01 780.5 1046.49 788.12 1056.73 790.8C1055.81 795 1054.84 799.19 1053.82 803.37C1045.34 800.99 1036.95 794.98 1031.46 788.07C1031.08 787.58 1030.39 788.24 1030.76 788.73C1036.46 796.23 1044.68 801.89 1053.43 804.99C1052.33 809.47 1051.19 813.95 1050.04 818.42C1041.33 817.09 1034.62 811.64 1029.25 804.74C1029.13 804.58 1028.85 804.79 1028.97 804.96C1033.73 811.59 1040.94 819.25 1049.62 820.05C1049.25 821.48 1048.88 822.91 1048.51 824.33C1048.29 825.19 1048.06 826.07 1047.82 826.95C1041.25 825.01 1035.16 822.65 1029.74 818.23C1029.58 818.1 1029.41 818.34 1029.55 818.47C1034.7 823.1 1040.87 826.23 1047.46 828.26C1046.73 830.94 1045.96 833.7 1045.2 836.52C1043.57 835.76 1041.99 834.93 1040.21 834.39C1036.94 833.41 1034.83 831.34 1031.98 829.63C1031.72 829.48 1031.43 829.85 1031.69 830.02C1034.19 831.65 1035.94 833.74 1038.79 834.82C1040.9 835.61 1042.89 836.62 1044.93 837.53C1041.93 848.69 1039.28 860.55 1040.72 871.26C1041.04 873.64 1045.02 874.27 1045.64 871.74C1047.53 863.97 1047.43 855.68 1048.32 847.74Z" />
					</g>
					<g id="&lt;Group&gt;">
						<path id="&lt;Path&gt;" class="shp27" d="M985.99 765.49C991.86 790.31 1011.22 828.22 984.11 848.28C976.81 853.68 966.42 851.71 958.74 847.49C948.71 841.96 938.97 824.9 934.36 814.69C930.7 806.61 929.26 796.36 926.37 787.83C923.24 778.62 919.93 769.48 916.87 760.24C905.86 726.96 910.03 692.82 930.59 664.07C937.58 673.43 946.58 679.91 955.55 687.84C959.64 691.45 963.65 695.41 967.16 699.56C973.36 706.92 974.56 716.71 976.26 725.73C978.79 739.06 982.86 752.28 985.99 765.49Z" />
						<path id="&lt;Path&gt;" class="shp26" d="M979.4 851.4C978.72 849.4 978.08 847.39 977.44 845.38C981.02 843.7 983.8 839.93 986.08 836.98C990.03 831.85 992.45 826.01 994.62 819.97C994.73 819.64 994.2 819.46 994.06 819.76C991.57 825.09 988.88 830.38 985.08 834.91C982.96 837.43 979.96 841.34 976.81 843.3C976.07 840.88 975.36 838.46 974.68 836.03C978.2 833.84 980.47 829.8 982.76 826.46C986.64 820.78 989.33 814.51 992.27 808.32C992.3 808.25 992.2 808.2 992.16 808.27C987.32 816.98 982.69 828.34 974.21 834.3C973.38 831.24 972.59 828.18 971.88 825.1C971.84 824.94 971.81 824.78 971.77 824.62C981.22 816.93 984.55 805.16 989.59 794.55C989.67 794.38 989.42 794.22 989.33 794.39C984.18 804.42 979.92 815.11 971.36 822.8C970.36 818.39 969.39 813.97 968.44 809.55C976.47 801.47 981.56 792.19 984.65 781.13C984.7 780.95 984.43 780.85 984.37 781.03C980.76 791.59 974.99 799.37 968.03 807.66C967.09 803.29 966.14 798.93 965.13 794.57C968.36 790.56 972.19 787.25 974.8 782.74C977.37 778.29 979.32 773.51 979.92 768.38C979.95 768.11 979.55 768.06 979.5 768.33C977.71 778.64 970.67 784.87 964.68 792.65C963.73 788.6 962.72 784.56 961.63 780.53C968.17 771.59 975.65 762.64 976.31 751.03C976.32 750.92 976.14 750.89 976.13 751C974.82 762 967.29 769.97 961.07 778.52C960.87 777.81 960.69 777.09 960.48 776.38C959.41 772.67 958.3 768.98 957.19 765.28C961.3 760.9 964.79 755.8 967.97 750.72C970.22 747.11 972.7 743.42 973.27 739.13C973.31 738.86 972.9 738.79 972.86 739.06C971.29 748.02 962.77 756.74 956.71 763.68C955.58 759.96 954.44 756.23 953.31 752.5C959.4 743.43 968.04 735.96 968.96 724.29C968.98 723.94 968.46 723.88 968.42 724.22C966.95 735.18 958.65 742.2 952.78 750.76C952.08 748.45 951.39 746.14 950.71 743.83C958.3 736.2 965.37 723.59 966.35 713.07C966.4 712.49 965.54 712.38 965.45 712.95C963.91 722.5 957.69 734.99 950.18 741.98C949.09 738.23 948.03 734.46 947.02 730.68C947.04 730.55 947.04 730.43 947.02 730.31C950.56 727.18 953.27 722.4 955.8 718.56C958.85 713.93 961.5 708.96 962.14 703.39C962.22 702.77 961.23 702.69 961.18 703.31C960.5 712.46 953.11 721.81 946.42 728.3C946.06 726.92 945.7 725.53 945.36 724.14C944.85 722.06 944.35 719.98 943.85 717.9C946.07 714.12 949.72 711.11 951.89 707.2C953.78 703.79 955.11 700.14 956.38 696.47C956.5 696.11 955.96 695.89 955.82 696.25C953.95 700.9 951.94 705.48 948.91 709.51C947.22 711.77 944.97 713.65 943.4 715.99C942.59 712.59 941.78 709.18 940.94 705.79C940.98 705.76 941.01 705.73 941.04 705.71C941.09 705.7 941.13 705.69 941.17 705.68C941.42 705.61 941.56 705.45 941.63 705.26C945.56 702.07 947.17 696.66 948.64 692.01C948.68 691.89 948.52 691.83 948.47 691.94C946.69 696.3 944.62 701.17 941 704.37C940.98 704.37 940.97 704.36 940.95 704.37C940.83 704.4 940.72 704.43 940.61 704.47C939.91 701.71 939.19 698.95 938.43 696.21C938.73 696.01 938.88 695.6 938.66 695.32C940.28 692.64 941.48 689.62 942.57 686.72C942.65 686.5 942.33 686.36 942.24 686.58C940.98 689.35 939.61 691.79 937.87 694.19C936.25 688.55 934.44 682.97 932.25 677.5C932.05 676.99 931.3 677.33 931.48 677.84C933.4 683.19 935.03 688.63 936.5 694.1C932.55 692.02 928.28 689.98 925.06 686.99C924.9 686.84 924.63 687.06 924.79 687.23C926.59 689.18 928.79 690.59 930.98 692.04C932.95 693.34 934.83 695.04 937.01 695.99C937.78 698.94 938.51 701.9 939.21 704.86C936.01 705.77 933.01 706.48 929.55 705.47C925.3 704.23 921.91 701.43 919.76 697.59C919.5 697.12 918.73 697.48 919 697.95C921.06 701.49 924.16 704.29 927.98 705.88C932 707.54 935.56 707.01 939.5 706.08C940.3 709.51 941.08 712.95 941.84 716.39C938.38 716.02 934.88 715.07 931.53 714.26C926.13 712.96 922.05 710.26 916.98 708.32C916.47 708.13 916.15 708.9 916.66 709.1C921.45 711.01 925.33 713.69 930.4 715.06C934.05 716.04 938.23 717.45 942.12 717.62C942.16 717.81 942.2 717.99 942.24 718.17C942.22 718.22 942.2 718.26 942.18 718.31C942.05 718.65 942.2 718.91 942.43 719.04C943.17 722.33 943.9 725.63 944.67 728.91C944.71 729.12 944.77 729.32 944.82 729.53C936.37 729.58 923.37 728.89 918.69 721.24C918.24 720.51 917.19 721.26 917.74 721.96C924.06 730.15 936 729.52 945.25 731.28C946.14 734.99 947.09 738.68 948.1 742.35C942.88 742.89 937.71 742.97 932.54 741.73C927.83 740.59 921.43 739.56 917.91 736.05C917.8 735.94 917.65 736.11 917.75 736.23C921.15 739.77 926.85 740.63 931.36 742.02C937.09 743.79 942.65 744.97 948.5 744.01C948.53 744.18 948.59 744.34 948.7 744.47C949.35 746.8 950.01 749.12 950.69 751.44C941.93 754.72 927.1 753.81 919.79 749.42C919.76 749.4 919.73 749.45 919.76 749.48C924.99 752.99 930.77 753.77 936.95 753.9C941.57 754 946.65 754.3 951.04 752.64C952.3 756.93 953.58 761.21 954.84 765.49C950.53 765.83 946.34 766.99 942.03 767.23C935.62 767.58 929.69 765.62 924.29 762.32C923.96 762.12 923.6 762.59 923.93 762.8C934.12 769.39 943.82 768.2 955.31 767.09C956.35 770.61 957.37 774.13 958.35 777.66C949.55 779.87 936.8 779.81 929.45 774.69C928.91 774.31 928.29 775.13 928.83 775.51C933.51 778.8 939.28 779.57 944.89 779.75C948.92 779.88 954.7 780.52 958.73 779C958.76 779.12 958.79 779.23 958.83 779.35C960.22 784.44 961.48 789.57 962.65 794.72C952.57 796.65 943.62 792.68 934.15 789.48C933.49 789.25 933.08 790.25 933.74 790.48C943.49 793.95 952.57 798.12 962.99 796.23C963.93 800.42 964.81 804.63 965.65 808.85C956.97 810.27 946.82 808.36 938.93 804.41C938.37 804.13 938.03 805.02 938.57 805.31C946.91 809.7 956.74 811.36 965.98 810.48C966.88 815.01 967.74 819.55 968.58 824.09C960.12 826.56 951.74 824.45 943.96 820.46C943.78 820.37 943.62 820.68 943.8 820.78C950.91 824.78 960.68 828.68 968.89 825.75C969.16 827.2 969.42 828.65 969.69 830.09C969.85 830.97 970.01 831.86 970.17 832.76C963.4 833.78 956.87 834.21 950.09 832.49C949.9 832.44 949.84 832.72 950.03 832.78C956.66 834.81 963.57 835.04 970.4 834.1C970.87 836.84 971.33 839.67 971.83 842.54C970.03 842.54 968.25 842.45 966.41 842.72C963.04 843.21 960.24 842.23 956.94 841.88C956.64 841.85 956.53 842.3 956.84 842.35C959.79 842.77 962.27 843.93 965.3 843.7C967.55 843.53 969.78 843.61 972.01 843.57C974 854.95 976.61 866.82 982.43 875.93C983.73 877.95 987.6 876.84 987.1 874.28C985.53 866.45 981.94 858.97 979.4 851.4Z" />
					</g>
					<g id="&lt;Group&gt;">
						<path id="&lt;Path&gt;" class="shp28" d="M1043.25 746.26C1044.65 777.79 1059.41 828.36 1021.8 846.46C1011.68 851.34 999.5 846.54 991.15 839.63C980.23 830.59 972.35 807.59 969.09 794.12C966.51 783.44 967.14 770.65 965.6 759.62C963.93 747.69 962.02 735.81 960.44 723.87C954.76 680.86 967.74 640.32 999.39 610.14C1005.71 623.13 1015.16 633.09 1024.23 644.81C1028.37 650.15 1032.33 655.89 1035.62 661.75C1041.46 672.13 1040.65 684.31 1040.64 695.66C1040.62 712.46 1042.51 729.47 1043.25 746.26Z" />
						<path id="&lt;Path&gt;" class="shp26" d="M1015.35 849.17C1015 846.58 1014.67 843.99 1014.37 841.4C1019.1 840.19 1023.35 836.25 1026.81 833.18C1032.8 827.87 1037.1 821.33 1041.13 814.48C1041.35 814.11 1040.74 813.76 1040.5 814.1C1036.24 820.01 1031.75 825.82 1026.08 830.44C1022.91 833.02 1018.36 837.07 1014.08 838.72C1013.73 835.61 1013.44 832.5 1013.18 829.39C1017.96 827.54 1021.66 823.16 1025.21 819.63C1031.24 813.62 1035.97 806.63 1040.97 799.78C1041.03 799.7 1040.92 799.61 1040.86 799.69C1032.95 809.16 1024.7 821.9 1013 827.18C1012.71 823.27 1012.45 819.37 1012.3 815.46C1012.29 815.26 1012.28 815.05 1012.28 814.85C1025.54 807.68 1032.32 794.14 1040.9 782.42C1041.04 782.23 1040.78 781.97 1040.63 782.17C1032.04 793.16 1024.39 805.17 1012.2 812.54C1012 806.94 1011.86 801.35 1011.72 795.76C1023.35 787.79 1031.69 777.69 1038.01 764.96C1038.11 764.75 1037.81 764.57 1037.69 764.78C1030.85 776.77 1022.03 784.9 1011.66 793.37C1011.52 787.84 1011.38 782.31 1011.17 776.78C1016.02 772.65 1021.44 769.52 1025.66 764.63C1029.82 759.82 1033.29 754.45 1035.21 748.37C1035.31 748.05 1034.83 747.89 1034.71 748.2C1030.15 760.33 1020.14 766.27 1011.06 774.34C1010.84 769.19 1010.55 764.05 1010.15 758.9C1020.18 749.54 1031.34 740.4 1034.83 726.44C1034.87 726.3 1034.67 726.22 1034.62 726.36C1030.48 739.42 1019.49 747.38 1009.95 756.33C1009.87 755.42 1009.81 754.5 1009.72 753.58C1009.28 748.83 1008.79 744.08 1008.29 739.34C1014.31 734.96 1019.73 729.57 1024.76 724.12C1028.33 720.26 1032.2 716.34 1033.9 711.27C1034.01 710.95 1033.53 710.77 1033.41 711.08C1029.42 721.61 1017.05 730.24 1008.07 737.28C1007.56 732.49 1007.04 727.7 1006.53 722.9C1016.03 713.28 1028.28 706.2 1032.09 692.22C1032.2 691.81 1031.59 691.61 1031.45 692.02C1027.12 704.99 1015.41 711.62 1006.29 720.67C1005.98 717.7 1005.68 714.72 1005.39 711.75C1016.37 704.24 1027.89 690.54 1031.51 677.98C1031.71 677.29 1030.7 676.95 1030.45 677.63C1026.36 688.88 1015.92 702.63 1005.17 709.39C1004.71 704.57 1004.29 699.74 1003.95 694.91C1004 694.77 1004.02 694.62 1004.02 694.46C1009.06 691.48 1013.46 686.29 1017.42 682.21C1022.2 677.29 1026.58 671.87 1028.65 665.24C1028.87 664.51 1027.7 664.18 1027.5 664.92C1024.54 675.88 1013.4 685.54 1003.76 691.88C1003.64 690.11 1003.52 688.35 1003.43 686.58C1003.29 683.94 1003.17 681.29 1003.05 678.65C1006.62 674.57 1011.76 671.75 1015.3 667.49C1018.38 663.79 1020.85 659.66 1023.24 655.49C1023.48 655.08 1022.87 654.68 1022.61 655.09C1019.27 660.32 1015.76 665.41 1011.14 669.62C1008.56 671.97 1005.39 673.74 1002.94 676.22C1002.75 671.89 1002.55 667.57 1002.31 663.24C1002.36 663.22 1002.41 663.19 1002.46 663.17C1002.51 663.17 1002.57 663.17 1002.62 663.16C1002.94 663.15 1003.15 662.98 1003.28 662.76C1008.78 659.79 1012.01 653.59 1014.87 648.27C1014.94 648.15 1014.76 648.04 1014.68 648.16C1011.5 653.04 1007.86 658.48 1002.72 661.53C1002.69 661.53 1002.68 661.52 1002.65 661.52C1002.5 661.54 1002.36 661.55 1002.21 661.56C1002.01 658.05 1001.77 654.53 1001.48 651.03C1001.89 650.84 1002.17 650.38 1001.96 649.99C1004.55 647.1 1006.71 643.72 1008.71 640.44C1008.86 640.19 1008.5 639.95 1008.33 640.19C1006.17 643.27 1003.94 645.93 1001.26 648.44C1000.61 641.21 999.69 634 998.3 626.84C998.17 626.18 997.18 626.42 997.28 627.08C998.38 634.03 999.1 641.01 999.62 648C995.3 644.57 990.58 641.1 987.36 636.72C987.2 636.5 986.82 636.7 986.98 636.95C988.71 639.73 991.05 641.96 993.39 644.23C995.48 646.26 997.38 648.77 999.81 650.43C1000.06 654.19 1000.26 657.95 1000.43 661.72C996.32 662.08 992.51 662.25 988.53 660.22C983.66 657.73 980.19 653.55 978.47 648.37C978.25 647.74 977.23 648 977.45 648.63C979.14 653.42 982.26 657.54 986.54 660.35C991.04 663.31 995.49 663.49 1000.49 663.27C1000.67 667.62 1000.82 671.98 1000.96 676.34C996.83 675.1 992.79 673.13 988.91 671.37C982.65 668.53 978.31 664.31 972.6 660.78C972.03 660.42 971.46 661.29 972.03 661.65C977.41 665.09 981.51 669.24 987.35 672.07C991.56 674.11 996.32 676.8 1001.01 677.91C1001.01 678.14 1001.02 678.37 1001.03 678.6C1000.99 678.65 1000.95 678.7 1000.92 678.75C1000.68 679.14 1000.81 679.49 1001.06 679.7C1001.19 683.87 1001.32 688.05 1001.49 692.22C1001.5 692.48 1001.52 692.74 1001.53 693C991.24 691.11 975.61 687.26 971.68 676.87C971.31 675.88 969.86 676.55 970.36 677.53C976.15 688.95 990.81 690.95 1001.64 695.24C1001.87 699.95 1002.18 704.65 1002.56 709.35C996.08 708.81 989.78 707.7 983.77 704.99C978.31 702.52 970.78 699.78 967.31 694.7C967.2 694.54 966.97 694.72 967.08 694.88C970.38 699.97 977.12 702.34 982.28 705.08C988.83 708.55 995.32 711.27 1002.65 711.47C1002.65 711.68 1002.69 711.89 1002.79 712.07C1003.04 715.05 1003.31 718.02 1003.6 721C992.18 722.97 974.36 718.42 966.5 711.4C966.46 711.36 966.42 711.42 966.45 711.45C971.99 716.93 978.85 719.22 986.33 720.81C991.91 722.01 998.02 723.55 1003.74 722.55C1004.28 728.05 1004.84 733.55 1005.39 739.05C1000.07 738.47 994.71 738.9 989.41 738.19C981.54 737.13 974.79 733.37 968.98 728.12C968.63 727.8 968.08 728.28 968.43 728.62C979.3 738.99 991.36 739.78 1005.59 741.1C1006.04 745.61 1006.46 750.13 1006.84 754.65C995.63 755.3 980.15 752.27 972.39 744.35C971.82 743.77 970.88 744.61 971.45 745.2C976.37 750.29 983.21 752.56 989.98 754.08C994.86 755.17 1001.73 757.28 1006.99 756.37C1007 756.52 1007.01 756.67 1007.02 756.81C1007.55 763.33 1007.88 769.85 1008.11 776.38C995.41 776.4 985.45 769.5 974.68 763.41C973.93 762.99 973.21 764.1 973.95 764.54C985 771.01 995.08 778.18 1008.18 778.3C1008.35 783.61 1008.45 788.93 1008.5 794.26C997.61 793.98 985.71 789.31 977.03 782.68C976.42 782.21 975.8 783.21 976.39 783.68C985.51 790.95 997.08 795.25 1008.52 796.32C1008.56 802.03 1008.55 807.75 1008.52 813.46C997.67 814.51 987.96 810 979.44 803.36C979.24 803.2 978.97 803.54 979.16 803.7C986.89 810.22 997.86 817.22 1008.51 815.55C1008.5 817.37 1008.49 819.2 1008.48 821.02C1008.48 822.12 1008.46 823.24 1008.45 824.37C999.98 824.04 991.95 823.06 984.1 819.39C983.88 819.29 983.75 819.62 983.96 819.73C991.55 823.74 999.89 825.62 1008.42 826.05C1008.35 829.5 1008.26 833.04 1008.2 836.65C1006.02 836.23 1003.87 835.71 1001.57 835.61C997.36 835.43 994.19 833.58 990.26 832.4C989.9 832.29 989.66 832.82 990.02 832.94C993.51 834.14 996.25 836.13 1000 836.55C1002.77 836.86 1005.46 837.48 1008.18 837.94C1007.97 852.24 1008.39 867.27 1013.36 879.69C1014.47 882.45 1019.44 881.99 1019.41 878.77C1019.33 868.88 1016.69 858.96 1015.35 849.17Z" />
					</g>
					<path id="&lt;Path&gt;" class="shp29" d="M1064 860.98L1062.61 886.61L1060.43 926.52L1056.86 992.09L968.09 992.09L964.52 926.52L962.34 886.61L960.95 860.98L1064 860.98Z" />
					<path id="&lt;Path&gt;" class="shp24" d="M1062.61 886.61L1062.33 891.75L1062.04 897.07L1060.43 926.52L964.52 926.52L962.91 897.07L962.63 891.75L962.34 886.61L1062.61 886.61Z" />
					<path id="&lt;Path&gt;" class="shp29" d="M1062.33 891.75L1062.04 897.07L962.91 897.07L962.63 891.75L1062.33 891.75Z" />
				</g>
			</g>
		</g>
	</g>
</svg>